<svg xmlns="http://www.w3.org/2000/svg" xmlns:xlink="http://www.w3.org/1999/xlink" version="1.1" x="0px" y="0px" viewBox="0 0 100 125" enable-background="new 0 0 100 100" xml:space="preserve"><path d="M92.095,45.919c0.105-0.163,0.112-0.371,0.01-0.536c-0.107-0.171-0.309-0.259-0.506-0.228  c-0.829,0.138-1.466,0.112-1.836,0.07v-1.243c0-0.162-0.078-0.314-0.21-0.408c-0.133-0.093-0.3-0.116-0.454-0.064  c-0.214,0.074-0.438,0.142-0.668,0.206v-0.024c0-0.276-0.224-0.5-0.5-0.5s-0.5,0.224-0.5,0.5v0.264  c-0.13,0.027-0.264,0.05-0.396,0.075v-0.059c0-0.276-0.224-0.5-0.5-0.5s-0.5,0.224-0.5,0.5v0.216  c-0.132,0.018-0.264,0.034-0.396,0.049v-0.125c0-0.276-0.224-0.5-0.5-0.5s-0.5,0.224-0.5,0.5v0.222  c-0.132,0.011-0.264,0.021-0.396,0.029v-0.112c0-0.276-0.224-0.5-0.5-0.5s-0.5,0.224-0.5,0.5v0.163  c-0.133,0.004-0.265,0.007-0.396,0.01v-0.169c0-0.276-0.224-0.5-0.5-0.5s-0.5,0.224-0.5,0.5v0.178c-0.133,0-0.267-0.001-0.398-0.003  v-0.179c0-0.276-0.224-0.5-0.5-0.5s-0.5,0.224-0.5,0.5v0.15c-1.474-0.064-2.767-0.215-3.648-0.403v-0.742  c4.058-0.24,6.493-1.431,6.599-1.483c0.074-0.037,0.139-0.093,0.187-0.161l5.555-7.952c0.45-0.457,0.575-0.797,0.605-0.932  c0.04-0.176-0.018-0.36-0.151-0.481c-0.134-0.121-0.322-0.162-0.494-0.104c-0.422,0.14-1.293,0.284-1.923,0.374v-1.4  c0-0.156-0.072-0.303-0.196-0.397c-0.123-0.094-0.282-0.125-0.436-0.085c-0.299,0.082-0.595,0.153-0.888,0.215v-0.103  c0-0.276-0.224-0.5-0.5-0.5s-0.5,0.224-0.5,0.5v0.278c-0.133,0.019-0.265,0.033-0.396,0.048v-0.046c0-0.276-0.224-0.5-0.5-0.5  s-0.5,0.224-0.5,0.5v0.131c-0.133,0.007-0.265,0.012-0.396,0.015v-0.146c0-0.276-0.224-0.5-0.5-0.5s-0.5,0.224-0.5,0.5v0.135  c-0.132-0.006-0.266-0.009-0.396-0.019v-0.256c0-0.276-0.224-0.5-0.5-0.5s-0.5,0.224-0.5,0.5v0.152  c-0.133-0.018-0.265-0.039-0.396-0.06v-0.232c0-0.276-0.224-0.5-0.5-0.5s-0.5,0.224-0.5,0.5v0.041  c-0.141-0.032-0.277-0.069-0.415-0.104c0.005-0.028,0.017-0.054,0.017-0.084v-0.28c0-0.276-0.224-0.5-0.5-0.5s-0.5,0.224-0.5,0.5  v0.084c-3.842-1.237-6.563-3.607-7.539-4.552v-0.472c0-0.461-0.373-0.833-0.834-0.833s-0.834,0.372-0.834,0.833v0.096  c-2.21,0.485-9.056,1.797-18.542,1.805c-9.536-0.008-16.401-1.333-18.572-1.812v-0.089c0-0.461-0.372-0.833-0.833-0.833  s-0.834,0.372-0.834,0.833v0.5c-0.998,0.959-3.691,3.283-7.479,4.51V30.32c0-0.276-0.224-0.5-0.5-0.5s-0.5,0.224-0.5,0.5v0.28  c0,0.026,0.011,0.049,0.015,0.075c-0.137,0.036-0.274,0.071-0.414,0.104v-0.031c0-0.276-0.224-0.5-0.5-0.5s-0.5,0.224-0.5,0.5v0.226  c-0.131,0.022-0.263,0.042-0.396,0.06v-0.146c0-0.276-0.224-0.5-0.5-0.5s-0.5,0.224-0.5,0.5v0.253  c-0.131,0.009-0.264,0.012-0.396,0.018v-0.131c0-0.276-0.224-0.5-0.5-0.5s-0.5,0.224-0.5,0.5v0.145  c-0.132-0.003-0.264-0.007-0.396-0.013v-0.131c0-0.276-0.224-0.5-0.5-0.5s-0.5,0.224-0.5,0.5v0.048  c-0.132-0.015-0.264-0.029-0.396-0.048l0,0v-0.28c0-0.276-0.224-0.5-0.5-0.5s-0.5,0.224-0.5,0.5v0.108  c-0.303-0.063-0.609-0.136-0.917-0.22c-0.148-0.041-0.311-0.009-0.435,0.085c-0.124,0.095-0.196,0.242-0.196,0.397v1.4  c-0.631-0.09-1.502-0.234-1.924-0.374c-0.17-0.058-0.36-0.018-0.494,0.104c-0.134,0.122-0.191,0.305-0.152,0.481  c0.031,0.135,0.155,0.475,0.606,0.933l5.553,7.952c0.048,0.068,0.112,0.124,0.187,0.161c0.105,0.053,2.542,1.243,6.601,1.483V44  c-0.876,0.187-2.157,0.336-3.619,0.401v-0.149c0-0.276-0.224-0.5-0.5-0.5s-0.5,0.224-0.5,0.5v0.179  c-0.131,0.002-0.266,0.002-0.398,0.003v-0.178c0-0.276-0.224-0.5-0.5-0.5s-0.5,0.224-0.5,0.5v0.17  c-0.132-0.003-0.264-0.005-0.396-0.01v-0.164c0-0.276-0.224-0.5-0.5-0.5s-0.5,0.224-0.5,0.5v0.115  c-0.132-0.009-0.265-0.019-0.396-0.029v-0.224c0-0.276-0.224-0.5-0.5-0.5s-0.5,0.224-0.5,0.5v0.129  c-0.133-0.015-0.265-0.031-0.396-0.048v-0.221c0-0.276-0.224-0.5-0.5-0.5s-0.5,0.224-0.5,0.5v0.064  c-0.133-0.024-0.266-0.048-0.396-0.074v-0.27c0-0.276-0.224-0.5-0.5-0.5s-0.5,0.224-0.5,0.5v0.034  c-0.241-0.066-0.476-0.138-0.699-0.215c-0.155-0.054-0.323-0.029-0.454,0.064c-0.132,0.094-0.21,0.246-0.21,0.408v1.397  c-0.262,0.14-0.818,0.343-1.68,0.198c-0.199-0.034-0.397,0.055-0.504,0.225c-0.105,0.166-0.099,0.375,0.007,0.539L7.9,46.345  c0.002,0.003,0.005,0.007,0.007,0.01c0,0,0,0,0,0.001c0.002,0.003,0.011,0.015,0.015,0.021c1.88,2.866,5.664,5.751,7.76,6.89  c0.033,0.018,0.068,0.032,0.104,0.042l2.157,0.602v1.083h-1.985c-0.276,0-0.5,0.224-0.5,0.5v19.959c0,0.276,0.224,0.5,0.5,0.5  h67.927c0.276,0,0.5-0.224,0.5-0.5V55.493c0-0.276-0.224-0.5-0.5-0.5h-1.984v-1.071l2.199-0.613c0.036-0.01,0.07-0.024,0.104-0.042  c2.266-1.23,6.104-4.612,7.874-7.315c0.003-0.003,0.01-0.012,0.011-0.014c0,0,0-0.001,0-0.001c0.004-0.004,0.008-0.01,0.011-0.014  L92.095,45.919z M76.806,45.025c2.838,0.558,8.335,0.664,11.957-0.361v0.635c-3.466,1.075-9.231,1.002-11.957,0.415V45.025z   M24.048,38.003c4.697,0.69,10.987,1.228,19.378,1.436l0.929,3.718c0.056,0.223,0.255,0.379,0.485,0.379h10.165  c0.229,0,0.43-0.156,0.485-0.379l0.93-3.718c8.391-0.208,14.682-0.746,19.378-1.436v7.606h-51.75V38.003z M55.364,39.535l-0.75,3  H45.23l-0.75-3H55.364z M82.84,40.93c-0.501,0.224-2.705,1.11-6.042,1.32v-4.402c5.104-0.812,8.207-1.801,10.079-2.697L82.84,40.93z   M30.646,26.336c1.503,0.354,8.776,1.928,19.18,1.946c0.004,0,0.008,0,0.013,0h0.166c0.004,0,0.008,0,0.013,0  c10.405-0.018,17.678-1.592,19.182-1.946c1.257,1.271,7.982,7.514,16.976,5.424v0.936c-9.468,2.347-16.377-4.989-16.446-5.064  c-0.121-0.132-0.305-0.19-0.479-0.149c-0.076,0.017-7.729,1.73-19.327,1.738c-11.586-0.008-19.25-1.721-19.327-1.738  c-0.174-0.041-0.358,0.017-0.479,0.149c-0.07,0.075-6.959,7.416-16.445,5.064V31.76C22.659,33.845,29.39,27.606,30.646,26.336z   M13.095,33.583c9.288,2.499,16.288-3.822,17.553-5.068c1.474,0.305,8.753,1.689,19.179,1.705c0.004,0,0.008,0,0.012,0h0.166  c0.004,0,0.008,0,0.012,0c10.428-0.016,17.706-1.4,19.18-1.705c1.06,1.043,6.142,5.651,13.224,5.65c1.376,0,2.829-0.176,4.341-0.584  c0.087-0.011,0.521-0.064,1.049-0.148c-2.407,1.678-10.608,4.995-37.887,5.099c-27.355-0.105-35.526-3.439-37.904-5.102  C12.567,33.519,13.025,33.575,13.095,33.583z M17.003,40.93l-4.036-5.78c1.872,0.897,4.975,1.886,10.081,2.698v4.401  C19.71,42.04,17.505,41.154,17.003,40.93z M11.081,44.664c3.622,1.025,9.12,0.92,11.958,0.361v0.689  c-2.727,0.589-8.494,0.66-11.958-0.415V44.664z M10.643,46.209c3.875,1.256,10.257,1.084,12.952,0.4h52.657  c2.719,0.689,9.201,0.86,13.064-0.438c0.187,0.034,0.509,0.08,0.944,0.087c-1.326,0.947-4.176,2.432-9.789,3.398  c-4.911,0.845-16.616,1.37-30.548,1.37c-13.843,0-26.078-0.707-30.562-1.372c-5.654-0.838-8.451-2.223-9.715-3.088  C10.098,46.484,10.432,46.332,10.643,46.209z M16.111,52.361c-1.311-0.721-3.367-2.21-5.114-3.914  c1.524,0.692,3.75,1.425,6.947,1.986v2.439L16.111,52.361z M36.007,74.952H25.87v-7.57c0-2.794,2.274-5.066,5.069-5.066  c2.794,0,5.067,2.272,5.067,5.066V74.952z M56.745,74.952H43.101v-7.504c0-3.762,3.061-6.822,6.822-6.822s6.822,3.061,6.822,6.822  V74.952z M73.976,74.952H63.839v-7.57c0-2.794,2.273-5.066,5.068-5.066s5.068,2.272,5.068,5.066V74.952z M83.386,74.952h-8.41v-7.57  c0-3.345-2.723-6.066-6.068-6.066s-6.068,2.722-6.068,6.066v7.57h-5.094v-7.504c0-4.313-3.509-7.822-7.822-7.822  c-4.313,0-7.822,3.509-7.822,7.822v7.504h-5.094v-7.57c0-3.345-2.722-6.066-6.067-6.066c-3.347,0-6.069,2.722-6.069,6.066v7.57  h-8.411V55.993h1.985h62.957h1.984V74.952z M18.944,54.993v-4.394c0.093,0.015,0.176,0.031,0.271,0.045  c5.314,0.788,18.516,1.382,30.708,1.382c13.984,0,25.755-0.53,30.718-1.384c0.091-0.016,0.171-0.034,0.261-0.049v4.4H18.944z   M83.776,52.361l-1.875,0.523v-2.482c3.225-0.646,5.489-1.466,7.044-2.229C87.231,49.934,85.195,51.578,83.776,52.361z"/><text x="0" y="115" fill="#000000" font-size="5px" font-weight="bold" font-family="'Helvetica Neue', Helvetica, Arial-Unicode, Arial, Sans-serif">Created by Yun Jeong Hong</text><text x="0" y="120" fill="#000000" font-size="5px" font-weight="bold" font-family="'Helvetica Neue', Helvetica, Arial-Unicode, Arial, Sans-serif">from the Noun Project</text></svg>